<svg xmlns="http://www.w3.org/2000/svg" width="70.333" height="70.333" viewBox="0 0 70.333 70.333">
  <path id="Path_9" data-name="Path 9" d="M61.652,37.227h6.621a2.061,2.061,0,0,0,2.061-2.061V15.3a2.061,2.061,0,0,0-2.061-2.061H50.47V8.682a8.682,8.682,0,1,0-17.363,0v4.561H15.3A2.061,2.061,0,0,0,13.242,15.3v17.8H8.682a8.682,8.682,0,1,0,0,17.363h4.561v17.8A2.061,2.061,0,0,0,15.3,70.333H35.167a2.061,2.061,0,0,0,2.061-2.061V61.651a4.561,4.561,0,0,1,9.121,0v6.621a2.061,2.061,0,0,0,2.061,2.061H68.273a2.061,2.061,0,0,0,2.061-2.061V48.409a2.061,2.061,0,0,0-2.061-2.061H61.652a4.561,4.561,0,1,1,0-9.121Zm0,13.242h4.561V66.212H50.47V61.651a8.682,8.682,0,0,0-17.363,0v4.561H17.363v-17.8A2.061,2.061,0,0,0,15.3,46.348H8.682a4.561,4.561,0,0,1,0-9.121H15.3a2.061,2.061,0,0,0,2.061-2.061v-17.8h17.8A2.061,2.061,0,0,0,37.227,15.3V8.682a4.561,4.561,0,0,1,9.121,0V15.3a2.061,2.061,0,0,0,2.061,2.061h17.8V33.106H61.652a8.682,8.682,0,1,0,0,17.363Z" fill="#bcbcbc"/>
</svg>
