<svg id="Group_23" data-name="Group 23" xmlns="http://www.w3.org/2000/svg" width="73.424" height="76" viewBox="0 0 73.424 76">
  <path id="Path_11" data-name="Path 11" d="M62.671,11.13a35.838,35.838,0,0,0-51.918,0A38.433,38.433,0,0,0,0,38,38.434,38.434,0,0,0,10.753,64.87,35.857,35.857,0,0,0,36.712,76a2.228,2.228,0,0,0,0-4.453C18.841,71.547,4.3,56.5,4.3,38S18.841,4.453,36.712,4.453,69.122,19.5,69.122,38v8.943a6.493,6.493,0,1,1-12.978,0V38c0-11.091-8.717-20.113-19.431-20.113S17.28,26.909,17.28,38,26,58.113,36.712,58.113a19.207,19.207,0,0,0,15.555-8.072,10.869,10.869,0,0,0,10.366,8.072,11,11,0,0,0,10.791-11.17V38A38.433,38.433,0,0,0,62.671,11.13ZM36.712,53.66c-8.342,0-15.129-7.025-15.129-15.66S28.37,22.34,36.712,22.34,51.841,29.365,51.841,38,45.054,53.66,36.712,53.66Z" transform="translate(0 0)" fill="#bcbcbc"/>
</svg>
