<svg xmlns="http://www.w3.org/2000/svg" width="64.075" height="76" viewBox="0 0 64.075 76">
  <g id="shield" transform="translate(-40.168)">
    <g id="Group_22" data-name="Group 22" transform="translate(40.168)">
      <path id="Path_10" data-name="Path 10" d="M102.657,9.037,72.846.094a2.225,2.225,0,0,0-1.28,0L41.755,9.037a2.226,2.226,0,0,0-1.587,2.133V43.962c0,4.265,1.727,8.631,5.132,12.977a53.055,53.055,0,0,0,10.695,9.906,95.941,95.941,0,0,0,15.3,8.96,2.225,2.225,0,0,0,1.82,0,95.943,95.943,0,0,0,15.3-8.96,53.058,53.058,0,0,0,10.694-9.906c3.405-4.346,5.132-8.712,5.132-12.977V11.17A2.226,2.226,0,0,0,102.657,9.037ZM99.79,43.962c0,7.548-7.574,14.626-13.927,19.235a94.278,94.278,0,0,1-13.657,8.116A94.275,94.275,0,0,1,58.549,63.2C52.2,58.588,44.621,51.51,44.621,43.962V12.826L72.206,4.551,99.79,12.826Z" transform="translate(-40.168)" fill="#bcbcbc"/>
    </g>
  </g>
</svg>
